# AST/ASF file generated using VICON BodyLanguage
# -----------------------------------------------
:version 1.10
:name VICON
:units
  mass 1.0
  length 0.45
  angle deg
:documentation
   .ast/.asf automatically generated from VICON data using
   VICON BodyBuilder and BodyLanguage model FoxedUp or BRILLIANT.MOD
:root
   order TX TY TZ RX RY RZ
   axis XYZ
   position 0 0 0  
   orientation 0 0 0 
:bonedata
  begin
     id 1 
     name lhipjoint
     direction 0.630305 -0.712092 0.309259 
     length 2.29033 
     axis 0 0 0  XYZ
  end
  begin
     id 2 
     name lfemur
     direction 0.34202 -0.939693 0  
     length 6.43538  
     axis 0 0 20  XYZ
    dof rx ry rz
    limits (-160.0 20.0)
           (-70.0 70.0)
           (-60.0 70.0)
  end
  begin
     id 3 
     name ltibia
     direction 0.34202 -0.939693 0   
     length 7.43097   
     axis 0 0 20   XYZ
    dof rx
    limits (-10.0 170.0)
  end
  begin
     id 4 
     name lfoot
     direction 0.0334653 -0.0919451 0.995202   
     length 1.78438   
     axis -90 7.62852e-016 20   XYZ
    dof rx rz
    limits (-45.0 90.0)
           (-70.0 20.0)
  end
  begin
     id 5 
     name ltoes
     direction 1.53535e-011 -4.21933e-011 1   
     length 0.90832   
     axis -90 7.62852e-016 20   XYZ
    dof rx
    limits (-90.0 20.0)
  end
  begin
     id 6 
     name rhipjoint
     direction -0.682059 -0.67077 0.291312   
     length 2.43143  
     axis 0 0 0  XYZ 
  end
  begin
     id 7 
     name rfemur
     direction -0.34202 -0.939693 0   
     length 6.63488   
     axis 0 0 -20   XYZ
    dof rx ry rz
    limits (-160.0 20.0)
           (-70.0 70.0)
           (-70.0 60.0)
  end
  begin
     id 8 
     name rtibia
     direction -0.34202 -0.939693 0   
     length 6.86532   
     axis 0 0 -20   XYZ
    dof rx
    limits (-10.0 170.0)
 end
 begin
     id 9 
     name rfoot
     direction -0.105199 -0.289033 0.951521   
     length 1.77126  
     axis -90 -7.62852e-016 -20   XYZ
    dof rx rz
    limits (-45.0 90.0)
           (-20.0 70.0)
  end
  begin
     id 10 
     name rtoes
     direction -1.53551e-011 -4.21978e-011 1   
     length 0.889273   
     axis -90 -7.62852e-016 -20   XYZ
    dof rx
    limits (-90.0 20.0)
  end
  begin
     id 11 
     name lowerback
     direction -0.0514305 0.998089 0.034245   
     length 2.02077   
     axis 0 0 0   XYZ
    dof rx ry rz
    limits (-20.0 45.0)
           (-30.0 30.0)
           (-30.0 30.0)
  end
  begin
     id 12 
     name upperback
     direction 0.0203189 0.999449 -0.0262315   
     length 2.01413   
     axis 0 0 0   XYZ
    dof rx ry rz
    limits (-20.0 45.0)
           (-30.0 30.0)
           (-30.0 30.0)
  end
  begin
     id 13 
     name thorax
     direction 0.0452736 0.998142 -0.0407729   
     length 2.02986   
     axis 0 0 0   XYZ
    dof rx ry rz
    limits (-20.0 45.0)
           (-30.0 30.0)
           (-30.0 30.0)
  end
  begin
     id 14 
     name lowerneck
     direction -0.0180464 0.999645 -0.0195774   
     length 1.59034   
     axis 0 0 0   XYZ
    dof rx ry rz
    limits (-20.0 45.0)
           (-30.0 30.0)
           (-30.0 30.0)
  end
  begin
     id 15 
     name upperneck
     direction 0.0732272 0.979935 -0.18538   
     length 1.57486   
     axis 0 0 0   XYZ
    dof rx ry rz
    limits (-20.0 45.0)
           (-30.0 30.0)
           (-30.0 30.0)
  end
  begin
     id 16
     name head
     direction 0.0252963 0.997909 -0.059472  
     length 1.60334  
     axis 0 0 0   XYZ
    dof rx ry rz
    limits (-20.0 45.0)
           (-30.0 30.0)
           (-30.0 30.0)
  end
  begin
     id 17 
     name lclavicle
     direction 0.943819 0.330449 0.00315172  
     length 3.50322  
     axis 0 0 0   XYZ
    dof ry rz
    limits (-20.0 10.0)
           (0.0 20.0)
  end
  begin
     id 18 
     name lhumerus
     direction 1 -4.48949e-011 2.22502e-028   
     length 4.63208   
     axis 180 -30 -90   XYZ
    dof rx ry rz
    limits (-60.0 90.0)
           (-90.0 90.0)
           (-90.0 90.0)
  end
  begin
     id 19
     name lradius
     direction 1 -4.48967e-011 -4.10197e-027   
     length 3.41924   
     axis 180 -30 -90   XYZ
    dof rx
    limits (-10.0 170.0)
  end
  begin
     id 20
     name lwrist
     direction 1 -4.48987e-011 -1.24264e-027   
     length 1.70962   
     axis 2.50585e-015 90 90   XYZ
    dof ry
    limits (-180.0 0.0)
 end
  begin
     id 21 
     name lhand
     direction 1 -4.48983e-011 -2.48528e-027   
     length 0.62537   
     axis 1.58582e-015 90 90   XYZ
    dof rx rz
    limits (-90.0 90.0)
           (-45.0 45.0)
  end
  begin
     id 22 
     name lfingers
     direction 1 -4.48896e-011 -4.97056e-027   
     length 0.50419   
     axis 3.17164e-015 90 90   XYZ
    dof rx
    limits (0.0 90.0)
  end
  begin
     id 23
     name lthumb
     direction 0.707107 -6.34803e-011 0.707107   
     length 0.723919   
     axis -90 45 2.85299e-015   XYZ
    dof rx rz
    limits (-45.0 45.0)
           (-45.0 45.0)
  end
  begin
     id 24 
     name rclavicle
     direction -0.964499 0.260664 -0.0423695   
     length 3.91997  
     axis 0 0 0   XYZ 
    dof ry rz
    limits (-10.0 20.0)
           (-20.0 0.0)
  end
  begin
     id 25 
     name rhumerus
     direction -1 -4.48957e-011 -1.98656e-027  
     length 4.4064   
     axis 180 30 90   XYZ
    dof rx ry rz
    limits (-90.0 60.0)
           (-90.0 90.0)
           (-90.0 90.0)
  end
  begin
     id 26 
     name rradius
     direction -1 -4.48968e-011 1.96972e-027   
     length 3.44675   
     axis 180 30 90   XYZ
    dof rx
    limits (-10.0 170.0)
  end
  begin
     id 27 
     name rwrist
     direction -1 -4.48974e-011 -1.24264e-027   
     length 1.72338   
     axis 2.50585e-015 -90 -90   XYZ
    dof ry
    limits (-180.0 0.0)
  end
  begin
     id 28
     name rhand
     direction -1 -4.48901e-011 -2.48528e-027   
     length 0.513674   
     axis 1.58582e-015 -90 -90   XYZ
    dof rx rz
    limits (-90.0 90.0)
           (-45.0 45.0)
  end
  begin
     id 29
     name rfingers
     direction -1 -4.48946e-011 -4.97056e-027   
     length 0.414137   
     axis 3.17164e-015 -90 -90   XYZ
    dof rx
    limits (0.0 90.0)
  end
  begin
     id 30
     name rthumb
     direction -0.707107 -6.34859e-011 0.707107   
     length 0.59462   
     axis -90 -45 -2.85299e-015   XYZ
    dof rx rz
    limits (-45.0 45.0)
           (-45.0 45.0)
  end
:hierarchy
  begin
    root lhipjoint rhipjoint lowerback
    lhipjoint lfemur
    lfemur ltibia
    ltibia lfoot
    lfoot ltoes
    rhipjoint rfemur
    rfemur rtibia
    rtibia rfoot
    rfoot rtoes
    lowerback upperback
    upperback thorax
    thorax lowerneck lclavicle rclavicle
    lowerneck upperneck
    upperneck head
    lclavicle lhumerus
    lhumerus lradius
    lradius lwrist
    lwrist lhand lthumb
    lhand lfingers
    rclavicle rhumerus
    rhumerus rradius
    rradius rwrist
    rwrist rhand rthumb
    rhand rfingers
  end

#!OML:ASF E:\inclinewalkrobotboard\Project 1\Capture day 1\Session 1\subject1.ASF
:FULLY-SPECIFIED
:DEGREES
1
root 9.65562 17.3075 39.9971 -164.423 3.3906 178.581
lowerback 3.32495 2.45096 -6.29181
upperback 4.74876 3.45673 1.2675
thorax 2.62498 1.63431 4.79751
lowerneck -6.34327 0.613052 -4.01439
upperneck 32.6403 -4.74218 7.18194
head 11.967 -3.00259 2.60078
rclavicle 1.53064e-014 3.18055e-015
rhumerus -40.2395 -25.4171 -72.8427
rradius 34.0577
rwrist 10.8443
rhand -23.9565 -40.7987
rfingers 7.12502
rthumb 2.51941 -70.7636
lclavicle 1.53064e-014 3.18055e-015
lhumerus -23.4005 3.36872 86.5507
lradius 22.0865
lwrist -25.9626
lhand -36.7631 -27.4682
lfingers 7.12502
lthumb -9.8461 2.28158
rfemur -24.9881 4.28796 12.4614
rtibia 16.5109
rfoot -11.7839 -7.13322
rtoes -28.012
lfemur -22.4291 -9.57228 -15.6408
ltibia 18.9003
lfoot -20.7631 14.028
ltoes -64.5085
2
root 9.66701 17.3068 39.9807 -164.26 3.49722 178.477
lowerback 3.35132 2.40851 -6.3401
upperback 4.93118 3.42192 1.29884
thorax 2.80277 1.61179 4.86375
lowerneck -6.62459 0.689883 -3.83083
upperneck 32.792 -4.58545 6.96198
head 12.0676 -2.92077 2.50398
rclavicle -2.38542e-015 9.14409e-015
rhumerus -40.3835 -26.06 -72.2676
rradius 33.3336
rwrist 11.4104
rhand -21.9557 -39.981
rfingers 7.12502
rthumb 4.45151 -69.9142
lclavicle -2.38542e-015 9.14409e-015
lhumerus -23.1903 3.38816 86.6508
lradius 22.5185
lwrist -26.2295
lhand -35.5253 -25.158
lfingers 7.12502
lthumb -8.65176 4.64469
rfemur -25.0893 4.37578 12.362
rtibia 16.4274
rfoot -11.7833 -7.11497
rtoes -27.7556
lfemur -22.4376 -9.4491 -15.7373
ltibia 18.765
lfoot -20.8219 14.0197
ltoes -64.555
3
root 9.67596 17.3118 39.9572 -164.309 3.69241 178.491
lowerback 3.53054 2.4411 -6.28297
upperback 5.14233 3.48587 1.3487
thorax 2.91627 1.64639 4.88088
lowerneck -6.93585 0.718556 -3.60875
upperneck 33.1304 -4.54049 6.64262
head 12.2582 -2.90597 2.34859
rclavicle 2.62396e-014 -2.74323e-014
rhumerus -40.6144 -26.7949 -71.5791
rradius 32.4781
rwrist 12.286
rhand -20.515 -39.5788
rfingers 7.12502
rthumb 5.84261 -69.4783
lclavicle 2.62396e-014 -2.74323e-014
lhumerus -23.1458 3.84031 86.5578
lradius 21.5546
lwrist -28.4259
lhand -37.1359 -27.6274
lfingers 7.12502
lthumb -10.2058 2.10507
rfemur -24.9537 4.55098 12.4066
rtibia 16.3458
rfoot -11.8108 -7.06289
rtoes -27.4141
lfemur -22.1235 -9.43219 -15.7405
ltibia 18.5297
lfoot -20.9453 14.1224
ltoes -64.4286
4
root 9.68821 17.3109 39.942 -163.959 3.67818 178.617
lowerback 3.41318 2.3872 -6.14842
upperback 5.16917 3.42203 1.4616
thorax 3.01801 1.61268 4.93182
lowerneck -7.1209 0.779606 -3.56515
upperneck 33.4122 -4.49716 6.54402
head 12.4085 -2.89689 2.30866
rclavicle 1.0138e-014 -2.78299e-015
rhumerus -40.8649 -27.3445 -70.9058
rradius 31.4967
rwrist 13.1585
rhand -19.8841 -39.5444
rfingers 7.12502
rthumb 6.45169 -69.4261
lclavicle 1.0138e-014 -2.78299e-015
lhumerus -23.2393 4.34462 86.4601
lradius 20.7879
lwrist -30.2985
lhand -38.5274 -28.4835
lfingers 7.12502
lthumb -11.5479 1.17842
rfemur -25.33 4.6662 12.545
rtibia 16.4444
rfoot -11.8616 -7.16263
rtoes -27.1734
lfemur -22.4885 -9.50529 -15.4518
ltibia 18.5753
lfoot -21.0181 14.2135
ltoes -64.3752
5
root 9.70153 17.3082 39.9294 -163.575 3.58106 178.721
lowerback 3.27386 2.30746 -6.01484
upperback 5.15737 3.31951 1.557
thorax 3.09733 1.55995 4.96525
lowerneck -7.22535 0.849658 -3.47765
upperneck 33.7284 -4.4861 6.45991
head 12.5595 -2.90364 2.26213
rclavicle -1.07344e-014 1.51076e-014
rhumerus -41.1356 -27.8829 -70.2884
rradius 30.5872
rwrist 13.7178
rhand -19.7045 -39.4373
rfingers 7.12502
rthumb 6.62511 -69.3137
lclavicle -1.07344e-014 1.51076e-014
lhumerus -23.4362 5.12098 86.2108
lradius 20.1976
lwrist -32.1852
lhand -39.4882 -27.3346
lfingers 7.12502
lthumb -12.4744 2.27313
rfemur -25.8448 4.69591 12.6635
rtibia 16.7455
rfoot -11.9596 -7.22868
rtoes -27.2362
lfemur -22.9629 -9.53948 -15.1616
ltibia 18.6901
lfoot -21.0067 14.3471
ltoes -64.599
6
root 9.71078 17.3129 39.9014 -163.626 3.67776 178.61
lowerback 3.39096 2.29003 -6.0895
upperback 5.30145 3.30997 1.57772
thorax 3.18076 1.55327 5.02885
lowerneck -7.28606 0.904532 -3.36631
upperneck 33.9166 -4.44411 6.33716
head 12.6445 -2.89125 2.20035
rclavicle -1.82882e-014 -2.74323e-014
rhumerus -41.4323 -28.5831 -69.6578
rradius 29.8186
rwrist 14.4634
rhand -19.866 -39.7182
rfingers 7.12502
rthumb 6.46913 -69.5994
lclavicle -1.82882e-014 -2.74323e-014
lhumerus -23.6566 5.80906 86.036
lradius 19.9429
lwrist -33.3623
lhand -39.9616 -26.2747
lfingers 7.12502
lthumb -12.9307 3.30467
rfemur -25.8367 4.69958 12.5975
rtibia 16.9957
rfoot -12.0951 -7.0572
rtoes -27.2048
lfemur -22.6603 -9.49811 -15.3129
ltibia 18.4454
lfoot -21.0666 14.3543
ltoes -64.6212
7
root 9.71881 17.3148 39.8744 -163.468 3.57347 178.442
lowerback 3.30681 1.93771 -6.37352
upperback 5.39123 2.84786 1.81651
thorax 3.36378 1.30166 5.45618
lowerneck -7.36091 1.15739 -3.7686
upperneck 34.0256 -3.92939 6.14162
head 12.6696 -2.73873 2.26252
rclavicle 3.97569e-014 4.13472e-014
rhumerus -41.253 -28.5493 -69.1321
rradius 28.9994
rwrist 15.59
rhand -19.796 -40.2384
rfingers 7.12502
rthumb 6.53675 -70.1176
lclavicle 3.97569e-014 4.13472e-014
lhumerus -23.8958 7.37392 86.003
lradius 19.9412
lwrist -33.7841
lhand -39.8987 -26.9891
lfingers 7.12502
lthumb -12.8701 2.59407
rfemur -25.9265 4.57964 12.4495
rtibia 17.1007
rfoot -12.1954 -7.0317
rtoes -27.0839
lfemur -22.6509 -9.52745 -15.4876
ltibia 18.2862
lfoot -21.0485 14.2504
ltoes -64.5688
8
root 9.73025 17.3176 39.8424 -163.459 3.73274 178.45
lowerback 3.35344 2.20645 -6.13946
upperback 5.42911 3.21604 1.62585
thorax 3.34459 1.49983 5.11615
lowerneck -7.38733 0.933618 -3.20563
upperneck 34.0647 -4.44046 6.21856
head 12.7238 -2.88534 2.12584
rclavicle -1.70955e-014 2.62396e-014
rhumerus -42.1423 -30.2931 -68.2231
rradius 28.4087
rwrist 16.8849
rhand -19.5863 -40.3309
rfingers 7.12502
rthumb 6.7392 -70.2036
lclavicle -1.70955e-014 2.62396e-014
lhumerus -23.9406 6.49715 85.9672
lradius 19.907
lwrist -33.6075
lhand -39.9552 -27.8762
lfingers 7.12502
lthumb -12.9246 1.7035
rfemur -25.8275 4.76316 12.5083
rtibia 17.1135
rfoot -12.2915 -6.99052
rtoes -27.0508
lfemur -22.2945 -9.33738 -15.4984
ltibia 17.9635
lfoot -21.0547 14.2686
ltoes -64.6078
9
root 9.7427 17.317 39.8171 -163.365 3.87449 178.477
lowerback 3.37365 1.95571 -6.29667
upperback 5.51393 2.8857 1.84565
thorax 3.45195 1.32243 5.44408
lowerneck -7.67056 1.16456 -3.69102
upperneck 34.2348 -4.0008 6.21203
head 12.8313 -2.74948 2.26679
rclavicle 2.46493e-014 1.59028e-014
rhumerus -41.8497 -30.2245 -67.8378
rradius 27.5535
rwrist 18.0053
rhand -19.8708 -40.3698
rfingers 7.12502
rthumb 6.46457 -70.2511
lclavicle 2.46493e-014 1.59028e-014
lhumerus -24.116 8.06895 85.8504
lradius 19.7718
lwrist -34.4439
lhand -40.7178 -25.8988
lfingers 7.12502
lthumb -13.6597 3.63299
rfemur -25.9127 5.01882 12.5061
rtibia 17.1689
rfoot -12.4297 -7.02886
rtoes -26.1712
lfemur -22.1707 -9.27824 -15.3965
ltibia 17.7535
lfoot -21.154 14.3707
ltoes -64.613
10
root 9.75547 17.3168 39.7941 -163.18 3.88563 178.494
lowerback 3.38462 1.8565 -6.29281
upperback 5.35889 2.72908 1.93116
thorax 3.3001 1.24522 5.5287
lowerneck -7.32272 1.2882 -3.74871
upperneck 34.2854 -3.87275 6.15892
head 12.768 -2.73439 2.27205
rclavicle -2.98177e-014 -3.10104e-014
rhumerus -42.3675 -30.34 -67.2961
rradius 27.0175
rwrist 18.627
rhand -20.3444 -40.6941
rfingers 7.12502
rthumb 6.00735 -70.5889
lclavicle -2.98177e-014 -3.10104e-014
lhumerus -24.5215 8.81208 85.6942
lradius 19.6221
lwrist -34.9028
lhand -40.8437 -27.4658
lfingers 7.12502
lthumb -13.781 2.05776
rfemur -26.0705 5.2177 12.5059
rtibia 17.2232
rfoot -12.5846 -7.10181
rtoes -25.0668
lfemur -22.2661 -9.29244 -15.2869
ltibia 17.7044
lfoot -21.2345 14.3989
ltoes -64.5798
11
root 9.76735 17.3215 39.7586 -163.196 4.07499 178.634
lowerback 3.46502 1.81823 -6.17253
upperback 5.42274 2.68335 2.00128
thorax 3.32958 1.22646 5.53401
lowerneck -7.56822 1.34877 -3.7883
upperneck 34.4799 -3.77686 6.07677
head 12.896 -2.70664 2.25947
rclavicle 1.94809e-014 9.54166e-015
rhumerus -42.5275 -30.573 -66.9821
rradius 26.5837
rwrist 19.1245
rhand -20.5567 -40.8015
rfingers 7.12502
rthumb 5.80238 -70.7021
lclavicle 1.94809e-014 9.54166e-015
lhumerus -24.5757 9.22059 85.6466
lradius 19.6159
lwrist -34.5718
lhand -40.7493 -25.3287
lfingers 7.12502
lthumb -13.69 4.20103
rfemur -25.9108 5.4804 12.7267
rtibia 17.1995
rfoot -12.6775 -6.96903
rtoes -24.9664
lfemur -21.9286 -9.17511 -15.1561
ltibia 17.4949
lfoot -21.3371 14.4318
ltoes -64.5142
12
root 9.78097 17.324 39.7242 -163.176 4.26859 178.755
lowerback 3.55326 2.00412 -5.86248
upperback 5.42043 2.93307 1.886
thorax 3.25814 1.36813 5.22841
lowerneck -7.59557 1.1974 -3.54496
upperneck 34.4599 -4.11961 6.23518
head 12.9194 -2.80659 2.23289
rclavicle -1.23246e-014 -2.78299e-014
rhumerus -43.1686 -31.4551 -66.51
rradius 26.3023
rwrist 19.8804
rhand -20.5037 -40.597
rfingers 7.12502
rthumb 5.85352 -70.4961
lclavicle -1.23246e-014 -2.78299e-014
lhumerus -24.5122 8.37704 85.728
lradius 19.6976
lwrist -33.4245
lhand -39.8343 -28.4098
lfingers 7.12502
lthumb -12.8081 1.17727
rfemur -25.8273 5.76012 12.9046
rtibia 17.1993
rfoot -12.689 -6.85267
rtoes -25.3171
lfemur -21.6452 -9.07336 -15.0216
ltibia 17.2838
lfoot -21.4297 14.4945
ltoes -64.4225
13
root 9.7995 17.3196 39.7106 -162.817 4.16463 178.577
lowerback 3.51616 1.78608 -6.08641
upperback 5.23213 2.61288 1.98194
thorax 3.1125 1.19895 5.4577
lowerneck -7.33215 1.30986 -3.85975
upperneck 34.2992 -3.9093 6.32073
head 12.7829 -2.75353 2.34901
rclavicle -1.78906e-014 -4.77083e-015
rhumerus -43.258 -31.4688 -66.1393
rradius 25.7577
rwrist 21.0246
rhand -20.1307 -40.256
rfingers 7.12502
rthumb 6.2136 -70.1448
lclavicle -1.78906e-014 -4.77083e-015
lhumerus -24.6478 8.66399 85.8337
lradius 19.7835
lwrist -32.4975
lhand -39.2675 -28.4127
lfingers 7.12502
lthumb -12.2616 1.2078
rfemur -26.3303 5.88275 12.661
rtibia 17.5058
rfoot -12.793 -7.0994
rtoes -25.9125
lfemur -22.12 -9.17991 -15.0489
ltibia 17.4359
lfoot -21.5128 14.4111
ltoes -64.2545
